<!-- Generated by IcoMoon.io -->
<svg version="1.1" xmlns="http://www.w3.org/2000/svg" width="37" height="32" viewBox="0 0 37 32">
<title>gym</title>
<path d="M31.687 1.3c-1.46-0.819-3.203-1.301-5.059-1.301-3.239 0-6.136 1.469-8.060 3.776l-0.014 0.017c-1.937-2.326-4.833-3.795-8.072-3.795-5.789 0-10.482 4.693-10.482 10.482 0 0.002 0 0.004 0 0.006v-0c0 0 0 0.001 0 0.001 0 1.155 0.19 2.266 0.54 3.303l-0.021-0.073c0.144 0.648 1.068 2.406 1.381 3.074h6.087l1.699-2.844c0.25-0.413 0.696-0.684 1.206-0.684 0.491 0 0.924 0.252 1.175 0.634l0.003 0.005 2.451 3.779 3.015-8.144c0.208-0.541 0.723-0.917 1.327-0.918h-0.009c0.6 0 1.112 0.376 1.314 0.906l0.003 0.010 2.701 7.256 12.578-0.247s-0.775 1.296-1.036 1.645-12.514 0.317-12.514 0.317c-0.6-0.002-1.112-0.377-1.315-0.905l-0.003-0.010-1.72-4.622-2.67 7.221c-0.186 0.491-0.626 0.846-1.155 0.908l-0.007 0.001c-0.046 0.005-0.099 0.008-0.154 0.008h-0c-0.492-0.001-0.924-0.253-1.177-0.634l-0.003-0.005-2.749-4.237-0.952 1.592c-0.25 0.413-0.697 0.685-1.207 0.686h-5.858c5.016 6.824 15.627 13.492 15.627 13.492s16.233-10.199 18.032-18.283c0.327-0.969 0.516-2.085 0.516-3.246 0-3.928-2.164-7.351-5.365-9.142l-0.053-0.027z"></path>
</svg>
