<svg aria-hidden="true" style="position: absolute; width: 0; height: 0; overflow: hidden;" version="1.1" xmlns="http://www.w3.org/2000/svg" xmlns:xlink="http://www.w3.org/1999/xlink">
<defs>
<symbol id="icon-gym" viewBox="0 0 37 32">
<path d="M31.687 1.3c-1.46-0.819-3.203-1.301-5.059-1.301-3.239 0-6.136 1.469-8.060 3.776l-0.014 0.017c-1.937-2.326-4.833-3.795-8.072-3.795-5.789 0-10.482 4.693-10.482 10.482 0 0.002 0 0.004 0 0.006v-0c0 0 0 0.001 0 0.001 0 1.155 0.19 2.266 0.54 3.303l-0.021-0.073c0.144 0.648 1.068 2.406 1.381 3.074h6.087l1.699-2.844c0.25-0.413 0.696-0.684 1.206-0.684 0.491 0 0.924 0.252 1.175 0.634l0.003 0.005 2.451 3.779 3.015-8.144c0.208-0.541 0.723-0.917 1.327-0.918h-0.009c0.6 0 1.112 0.376 1.314 0.906l0.003 0.010 2.701 7.256 12.578-0.247s-0.775 1.296-1.036 1.645-12.514 0.317-12.514 0.317c-0.6-0.002-1.112-0.377-1.315-0.905l-0.003-0.010-1.72-4.622-2.67 7.221c-0.186 0.491-0.626 0.846-1.155 0.908l-0.007 0.001c-0.046 0.005-0.099 0.008-0.154 0.008h-0c-0.492-0.001-0.924-0.253-1.177-0.634l-0.003-0.005-2.749-4.237-0.952 1.592c-0.25 0.413-0.697 0.685-1.207 0.686h-5.858c5.016 6.824 15.627 13.492 15.627 13.492s16.233-10.199 18.032-18.283c0.327-0.969 0.516-2.085 0.516-3.246 0-3.928-2.164-7.351-5.365-9.142l-0.053-0.027z"></path>
</symbol>
<symbol id="icon-restaurant" viewBox="0 0 24 24">
<path d="M15.984 6q0-1.406 1.523-2.695t3.492-1.289v19.969h-2.484v-7.969h-2.531v-8.016zM11.016 9v-6.984h1.969v6.984q0 1.594-1.078 2.742t-2.672 1.242v9h-2.484v-9q-1.594-0.094-2.672-1.242t-1.078-2.742v-6.984h2.016v6.984h1.969v-6.984h2.016v6.984h2.016z"></path>
</symbol>
<symbol id="icon-home" viewBox="0 0 32 32">
<path d="M32 18.451l-16-12.42-16 12.42v-5.064l16-12.42 16 12.42zM28 18v12h-8v-8h-8v8h-8v-12l12-9z"></path>
</symbol>
<symbol id="icon-droplet" viewBox="0 0 32 32">
<path d="M27.020 14.786c-2.055-5.732-6.41-10.88-11.020-14.786-4.61 3.907-8.965 9.054-11.020 14.786-1.271 3.545-1.396 7.393 0.393 10.794 2.058 3.911 6.207 6.42 10.626 6.42s8.569-2.509 10.626-6.42c1.79-3.401 1.664-7.249 0.393-10.794zM23.086 23.717c-1.369 2.602-4.15 4.283-7.086 4.283-1.723 0-3.391-0.579-4.753-1.583 0.414 0.054 0.832 0.083 1.254 0.083 3.67 0 7.146-2.1 8.856-5.351 1.402-2.665 1.281-5.433 0.746-7.636 0.455 0.88 0.841 1.756 1.151 2.623 0.706 1.971 1.251 4.886-0.168 7.581z"></path>
</symbol>
</defs>
</svg>
